<svg width="164" height="40" viewBox="0 0 164 40" fill="none" xmlns="http://www.w3.org/2000/svg">
<path d="M44.1641 27.274V10.4082H47.2479L55.1743 22.2865V10.4082H58.2581V27.274H55.1743L47.2479 15.4198V27.274H44.1641Z" fill="black"/>
<path d="M66.9483 27.5631C65.7919 27.5631 64.7479 27.2981 63.8163 26.768C62.9008 26.238 62.17 25.5071 61.6239 24.5755C61.0939 23.6278 60.8289 22.5355 60.8289 21.2987C60.8289 20.0619 61.1019 18.9776 61.648 18.046C62.1941 17.0983 62.9249 16.3594 63.8404 15.8294C64.772 15.2993 65.816 15.0343 66.9724 15.0343C68.1128 15.0343 69.1407 15.2993 70.0563 15.8294C70.9878 16.3594 71.7186 17.0983 72.2487 18.046C72.7948 18.9776 73.0678 20.0619 73.0678 21.2987C73.0678 22.5355 72.7948 23.6278 72.2487 24.5755C71.7186 25.5071 70.9878 26.238 70.0563 26.768C69.1247 27.2981 68.0887 27.5631 66.9483 27.5631ZM66.9483 24.8887C67.7514 24.8887 68.4501 24.5915 69.0444 23.9972C69.6387 23.3868 69.9358 22.4873 69.9358 21.2987C69.9358 20.1101 69.6387 19.2186 69.0444 18.6243C68.4501 18.0139 67.7594 17.7087 66.9724 17.7087C66.1533 17.7087 65.4466 18.0139 64.8523 18.6243C64.2741 19.2186 63.985 20.1101 63.985 21.2987C63.985 22.4873 64.2741 23.3868 64.8523 23.9972C65.4466 24.5915 66.1453 24.8887 66.9483 24.8887Z" fill="black"/>
<path d="M73.5756 27.274L77.9123 21.2987L73.5756 15.3234H76.8763L79.9119 19.5639L82.9235 15.3234H86.2482L81.8875 21.2987L86.2482 27.274H82.9235L79.9119 23.0335L76.8763 27.274H73.5756Z" fill="black"/>
<path d="M92.935 27.5631C91.4413 27.5631 90.2849 27.0973 89.4657 26.1657C88.6626 25.234 88.2611 23.8687 88.2611 22.0697V15.3234H91.3208V21.7806C91.3208 22.8086 91.5296 23.5957 91.9472 24.1418C92.3648 24.6879 93.0234 24.961 93.9228 24.961C94.7741 24.961 95.4728 24.6558 96.0189 24.0454C96.581 23.435 96.8621 22.5837 96.8621 21.4914V15.3234H99.9459V27.274H97.2235L96.9825 25.2501C96.6131 25.9569 96.0751 26.5191 95.3684 26.9367C94.6777 27.3543 93.8666 27.5631 92.935 27.5631Z" fill="black"/>
<path d="M103.184 27.274V10.4082H108.942C110.918 10.4082 112.54 10.7616 113.809 11.4683C115.094 12.159 116.041 13.1389 116.652 14.4078C117.278 15.6607 117.591 17.1385 117.591 18.8411C117.591 20.5437 117.278 22.0295 116.652 23.2985C116.041 24.5514 115.094 25.5312 113.809 26.238C112.54 26.9287 110.918 27.274 108.942 27.274H103.184ZM106.268 24.6237H108.797C110.211 24.6237 111.327 24.3988 112.146 23.949C112.965 23.4832 113.552 22.8246 113.905 21.9733C114.258 21.1059 114.435 20.0619 114.435 18.8411C114.435 17.6364 114.258 16.6004 113.905 15.733C113.552 14.8656 112.965 14.199 112.146 13.7332C111.327 13.2674 110.211 13.0344 108.797 13.0344H106.268V24.6237Z" fill="black"/>
<path d="M125.251 27.5631C124.127 27.5631 123.123 27.2901 122.239 26.7439C121.356 26.1978 120.657 25.4509 120.143 24.5032C119.629 23.5555 119.372 22.4793 119.372 21.2746C119.372 20.0699 119.629 19.0017 120.143 18.0701C120.657 17.1224 121.356 16.3835 122.239 15.8534C123.123 15.3073 124.127 15.0343 125.251 15.0343C126.15 15.0343 126.938 15.2029 127.612 15.5402C128.287 15.8775 128.833 16.3514 129.25 16.9618L129.419 15.3234H132.334V27.274H129.443L129.25 25.5633C128.865 26.0934 128.351 26.5592 127.708 26.9608C127.082 27.3623 126.263 27.5631 125.251 27.5631ZM125.902 24.8646C126.897 24.8646 127.708 24.5353 128.335 23.8767C128.977 23.2021 129.299 22.3428 129.299 21.2987C129.299 20.2546 128.977 19.4033 128.335 18.7447C127.708 18.0701 126.897 17.7328 125.902 17.7328C124.922 17.7328 124.111 18.0621 123.468 18.7206C122.826 19.3792 122.505 20.2305 122.505 21.2746C122.505 22.3187 122.826 23.178 123.468 23.8527C124.111 24.5273 124.922 24.8646 125.902 24.8646Z" fill="black"/>
<path d="M140.799 27.274C139.546 27.274 138.542 26.9688 137.787 26.3584C137.032 25.7481 136.655 24.6638 136.655 23.1057V17.9014H134.607V15.3234H136.655L137.016 12.1189H139.739V15.3234H142.967V17.9014H139.739V23.1298C139.739 23.7081 139.859 24.1097 140.1 24.3345C140.357 24.5434 140.791 24.6478 141.401 24.6478H142.895V27.274H140.799Z" fill="black"/>
<path d="M150.32 27.5631C149.196 27.5631 148.192 27.2901 147.309 26.7439C146.425 26.1978 145.727 25.4509 145.213 24.5032C144.699 23.5555 144.442 22.4793 144.442 21.2746C144.442 20.0699 144.699 19.0017 145.213 18.0701C145.727 17.1224 146.425 16.3835 147.309 15.8534C148.192 15.3073 149.196 15.0343 150.32 15.0343C151.22 15.0343 152.007 15.2029 152.681 15.5402C153.356 15.8775 153.902 16.3514 154.32 16.9618L154.488 15.3234H157.404V27.274H154.512L154.32 25.5633C153.934 26.0934 153.42 26.5592 152.778 26.9608C152.151 27.3623 151.332 27.5631 150.32 27.5631ZM150.971 24.8646C151.967 24.8646 152.778 24.5353 153.404 23.8767C154.047 23.2021 154.368 22.3428 154.368 21.2987C154.368 20.2546 154.047 19.4033 153.404 18.7447C152.778 18.0701 151.967 17.7328 150.971 17.7328C149.991 17.7328 149.18 18.0621 148.537 18.7206C147.895 19.3792 147.574 20.2305 147.574 21.2746C147.574 22.3187 147.895 23.178 148.537 23.8527C149.18 24.5273 149.991 24.8646 150.971 24.8646Z" fill="black"/>
<rect x="5.29203" y="8.45024" width="32" height="20.7324" rx="10.3662" stroke="#0070F9" stroke-width="1.80282"/>
<path fill-rule="evenodd" clip-rule="evenodd" d="M14.3167 20.0552C14.6901 20.0552 14.9927 19.7526 14.9927 19.3792C14.9927 19.2742 14.9688 19.1749 14.9262 19.0863C15.1509 18.9857 15.4 18.9297 15.6622 18.9297C16.6579 18.9297 17.465 19.7368 17.465 20.7325C17.465 21.7282 16.6579 22.5353 15.6622 22.5353C14.6665 22.5353 13.8594 21.7282 13.8594 20.7325C13.8594 20.4666 13.9169 20.2142 14.0203 19.987C14.1098 20.0307 14.2104 20.0552 14.3167 20.0552Z" fill="#0070F9"/>
<path fill-rule="evenodd" clip-rule="evenodd" d="M25.5823 20.0552C25.9557 20.0552 26.2584 19.7526 26.2584 19.3792C26.2584 19.2742 26.2345 19.1749 26.1918 19.0863C26.4165 18.9857 26.6656 18.9297 26.9278 18.9297C27.9235 18.9297 28.7306 19.7368 28.7306 20.7325C28.7306 21.7282 27.9235 22.5353 26.9278 22.5353C25.9321 22.5353 25.125 21.7282 25.125 20.7325C25.125 20.4666 25.1826 20.2142 25.2859 19.987C25.3754 20.0307 25.476 20.0552 25.5823 20.0552Z" fill="#0070F9"/>
<path fill-rule="evenodd" clip-rule="evenodd" d="M30.2308 16.0479C33.0399 18.435 34.8222 21.9939 34.8222 25.9692C34.8222 26.281 34.8112 26.5902 34.7897 26.8966C32.7855 28.8438 30.0594 30.0521 27.0512 30.0815H15.5584C14.52 30.0714 13.5152 29.9207 12.5622 29.6477C10.323 31.4694 7.46654 32.5614 4.35499 32.5614C3.75534 32.5614 3.16517 32.5208 2.58707 32.4423C1.74069 32.3273 1.68265 31.1867 2.41747 30.7513C4.86669 29.2999 6.79905 27.0683 7.87218 24.3988C8.27217 21.0731 9.92651 18.1332 12.3483 16.0662C11.6602 15.9465 10.9524 15.8842 10.2301 15.8842C9.4424 15.8842 8.91883 15.0344 9.49233 14.4944C10.8033 13.2602 12.5692 12.5039 14.5118 12.5039C15.0414 12.5039 15.5579 12.5601 16.0556 12.6669C16.1429 12.6768 16.2308 12.6904 16.319 12.7077L20.1613 13.4625C20.9171 13.6109 21.6945 13.6109 22.4503 13.4625L26.0475 12.7559C26.6569 12.5916 27.2977 12.5039 27.9591 12.5039C29.9017 12.5039 31.6676 13.2602 32.9785 14.4944C33.552 15.0344 33.0285 15.8842 32.2408 15.8842C31.5562 15.8842 30.8848 15.9402 30.2308 16.0479ZM15.6587 24.1102C17.5256 24.1102 19.039 22.5968 19.039 20.7299C19.039 18.863 17.5256 17.3496 15.6587 17.3496C13.7918 17.3496 12.2784 18.863 12.2784 20.7299C12.2784 22.5968 13.7918 24.1102 15.6587 24.1102ZM26.9243 24.1102C28.7912 24.1102 30.3046 22.5968 30.3046 20.7299C30.3046 18.863 28.7912 17.3496 26.9243 17.3496C25.0574 17.3496 23.544 18.863 23.544 20.7299C23.544 22.5968 25.0574 24.1102 26.9243 24.1102ZM21.2967 22.5332C20.3632 22.5332 19.6065 23.2899 19.6065 24.2233V24.5965C19.6065 25.0069 19.7696 25.4005 20.0598 25.6907L20.6593 26.2902C21.0113 26.6422 21.582 26.6422 21.9341 26.2902L22.5336 25.6907C22.8238 25.4005 22.9868 25.0069 22.9868 24.5965V24.2233C22.9868 23.2899 22.2301 22.5332 21.2967 22.5332Z" fill="#0070F9"/>
</svg>
